<svg width="68" height="19" viewBox="0 0 68 19" fill="none" xmlns="http://www.w3.org/2000/svg">
<path d="M0.546063 18V1.2H4.19406L9.54606 11.856L14.8261 1.2H18.4741V18H15.4021V6.408L10.7221 15.6H8.29806L3.61806 6.408V18H0.546063ZM27.3736 18.288C26.2216 18.288 25.1816 18.024 24.2536 17.496C23.3416 16.968 22.6136 16.24 22.0696 15.312C21.5416 14.368 21.2776 13.28 21.2776 12.048C21.2776 10.816 21.5496 9.736 22.0936 8.808C22.6376 7.864 23.3656 7.128 24.2776 6.6C25.2056 6.072 26.2456 5.808 27.3976 5.808C28.5336 5.808 29.5576 6.072 30.4696 6.6C31.3976 7.128 32.1256 7.864 32.6536 8.808C33.1976 9.736 33.4696 10.816 33.4696 12.048C33.4696 13.28 33.1976 14.368 32.6536 15.312C32.1256 16.24 31.3976 16.968 30.4696 17.496C29.5416 18.024 28.5096 18.288 27.3736 18.288ZM27.3736 15.624C28.1736 15.624 28.8696 15.328 29.4616 14.736C30.0536 14.128 30.3496 13.232 30.3496 12.048C30.3496 10.864 30.0536 9.976 29.4616 9.384C28.8696 8.776 28.1816 8.472 27.3976 8.472C26.5816 8.472 25.8776 8.776 25.2856 9.384C24.7096 9.976 24.4216 10.864 24.4216 12.048C24.4216 13.232 24.7096 14.128 25.2856 14.736C25.8776 15.328 26.5736 15.624 27.3736 15.624ZM41.0515 18C39.8035 18 38.8035 17.696 38.0515 17.088C37.2995 16.48 36.9235 15.4 36.9235 13.848V8.664H34.8835V6.096H36.9235L37.2835 2.904H39.9955V6.096H43.2115V8.664H39.9955V13.872C39.9955 14.448 40.1155 14.848 40.3555 15.072C40.6115 15.28 41.0435 15.384 41.6515 15.384H43.1395V18H41.0515ZM47.5051 4.248C46.9451 4.248 46.4811 4.08 46.1131 3.744C45.7611 3.408 45.5851 2.984 45.5851 2.472C45.5851 1.96 45.7611 1.544 46.1131 1.224C46.4811 0.887999 46.9451 0.719999 47.5051 0.719999C48.0651 0.719999 48.5211 0.887999 48.8731 1.224C49.2411 1.544 49.4251 1.96 49.4251 2.472C49.4251 2.984 49.2411 3.408 48.8731 3.744C48.5211 4.08 48.0651 4.248 47.5051 4.248ZM45.9691 18V6.096H49.0411V18H45.9691ZM55.4635 18L51.0955 6.096H54.3115L57.3355 15.096L60.3595 6.096H63.5755L59.1835 18H55.4635ZM65.8722 18.168C65.3122 18.168 64.8482 17.992 64.4802 17.64C64.1282 17.288 63.9522 16.864 63.9522 16.368C63.9522 15.856 64.1282 15.424 64.4802 15.072C64.8482 14.72 65.3122 14.544 65.8722 14.544C66.4322 14.544 66.8882 14.72 67.2402 15.072C67.6082 15.424 67.7922 15.856 67.7922 16.368C67.7922 16.864 67.6082 17.288 67.2402 17.64C66.8882 17.992 66.4322 18.168 65.8722 18.168Z" fill="#1F2128"/>
</svg>
